<svg id="Layer_1" data-name="Layer 1" xmlns="http://www.w3.org/2000/svg" xmlns:xlink="http://www.w3.org/1999/xlink" viewBox="0 0 1016.06 798.29">
    <defs>
        <style>
            .cls-1,
            .cls-5{
            fill:#fff;
            }
            .cls-2{
            mask:url(#mask);
            }
            .cls-3,
            .cls-5{
            fill-rule:evenodd;
            }
            .cls-3{
            fill:url(#linear-gradient);
            }
            .cls-4{
            mask:url(#mask-2-2);
            }
            .cls-5{
            fill-opacity:0.3;
            }
            .cls-6{
            mask:url(#mask-3);
            }
        </style>
        <mask id="mask" x="-423.94" y="0.17" width="1440" height="797.29" maskUnits="userSpaceOnUse">
            <g transform="translate(0.06 0.45)">
                <g id="mask-2">
                    <rect id="path-1" class="cls-1" x="-424" y="0.45" width="1440" height="796"/>
                </g>
            </g>
        </mask>
        <linearGradient id="linear-gradient" x1="108.36" y1="698.9" x2="108.54" y2="698.47" gradientTransform="matrix(1152.2, -419.37, -337.12, -926.22, 111095.76, 693012.7)" gradientUnits="userSpaceOnUse">
            <stop offset="0" stop-color="#fff500"/>
            <stop offset="1" stop-color="#ff7800"/>
        </linearGradient>
        <mask id="mask-2-2" x="-423.94" y="0" width="1440" height="797.2" maskUnits="userSpaceOnUse">
            <g transform="translate(0.06 0.45)">
                <g id="mask-2-3" data-name="mask-2">
                    <rect id="path-1-2" data-name="path-1" class="cls-1" x="-424" y="0.45" width="1440" height="796"/>
                </g>
            </g>
        </mask>
        <mask id="mask-3" x="-423.94" y="0.15" width="1440" height="798.13" maskUnits="userSpaceOnUse">
            <g transform="translate(0.06 0.45)">
                <g id="mask-2-4" data-name="mask-2">
                    <rect id="path-1-3" data-name="path-1" class="cls-1" x="-424" y="0.45" width="1440" height="796"/>
                </g>
            </g>
        </mask>
    </defs>
    <title>Group</title>
    <g id="Page-1">
        <g id="Group">
            <g class="cls-2">
                <path id="Fill-1-Copy-3" class="cls-3" d="M-.06,796.59C28.38,772.67,58,748.46,87.57,724c109.87-91,218.19-184.81,268.16-295.44C433.58,254.72,366.57,110.19,324.55-.25q265.5-.19,690.45.7L1016,797Q218.42,797-.06,796.59Z" transform="translate(0.06 0.45)"/>
            </g>
            <g class="cls-4">
                <path id="Fill-1-Copy-2" class="cls-5" d="M1015,.45v796.1q-719,.45-862.1-.1c58.74-57,130.43-112.78,203.1-172.93C479,521.69,600.26,416.67,656.21,292.86,704.77,184.49,700.21,86.64,681-.45Q840.88-.45,1015,.45Z" transform="translate(0.06 0.45)"/>
            </g>
            <g class="cls-6">
                <path id="Fill-1-Copy" class="cls-5" d="M564,797.84c-12,.07,18.75-15.47,28.13-23.24,111.13-92,220.7-186.93,271.23-298.83,88.39-197.33-8.1-360-46-475.77C846.06-.45,920.93-.45,1015,.45v796C737.23,795.06,788.7,796.45,564,797.84Z" transform="translate(0.06 0.45)"/>
            </g>
        </g>
    </g>
</svg>