<?xml version="1.0" encoding="UTF-8"?>
<svg width="196px" height="59px" viewBox="0 0 196 59" version="1.1" xmlns="http://www.w3.org/2000/svg" xmlns:xlink="http://www.w3.org/1999/xlink">
    <!-- Generator: Sketch 54.1 (76490) - https://sketchapp.com -->
    <title>Group</title>
    <desc>Created with Sketch.</desc>
    <defs>
        <polygon id="path-1" points="0.0459375 0.712935673 5.579875 0.712935673 5.579875 15.2001248 0.0459375 15.2001248"></polygon>
        <polygon id="path-3" points="0.0459375 0.0435555556 40.8843761 0.0435555556 40.8843761 44.1416452 0.0459375 44.1416452"></polygon>
        <polygon id="path-5" points="0.03521875 0.631502052 38.6319063 0.631502052 38.6319063 19.1033138 0.03521875 19.1033138"></polygon>
    </defs>
    <g id="Symbols" stroke="none" stroke-width="1" fill="none" fill-rule="evenodd">
        <g id="Desktop-navbar" transform="translate(-42.000000, -18.000000)">
            <g id="Group" transform="translate(42.000000, 18.000000)">
                <g id="Group-3" transform="translate(0.000000, 11.461988)">
                    <mask id="mask-2" fill="white">
                        <use xlink:href="#path-1"></use>
                    </mask>
                    <g id="Clip-2"></g>
                    <path d="M2.5571875,4.91872125 C2.38951563,2.78602729 3.03570313,1.44803119 3.50579688,0.712935673 C2.3275,1.75597661 1.49985938,2.98164522 0.988421875,4.31047173 C0.2480625,6.02518519 -0.03521875,7.55268616 0.01071875,8.93423782 C0.091109375,11.4069708 1.22423438,13.4135828 2.66973438,15.2001248 C3.5739375,14.0730292 4.59298438,13.1774659 5.579875,12.3002417 C4.78898438,11.2564366 4.05934375,10.0338246 3.45526563,8.51854971 C2.9001875,7.12477193 2.63757813,5.93272515 2.5571875,4.91872125" id="Fill-1" fill="#007FC3" mask="url(#mask-2)"></path>
                </g>
                <path d="M14.9978281,48.7654113 C14.3248437,47.0782066 13.9274844,45.627883 13.7054531,44.3433762 C13.4007344,42.5858713 13.4275312,41.1431891 13.5331875,39.8495127 C13.7429687,37.2927251 14.2605312,35.3021598 13.1764062,32.581848 C12.1749687,30.068616 10.3367031,28.5732086 8.4249375,26.8065341 C7.44417187,27.6661832 6.44503125,28.5968967 5.518625,29.7621988 C6.93273437,31.2247485 8.22817187,32.6292242 8.83760937,34.1605458 C9.4233125,35.6292086 9.45776562,37.5754542 9.45623437,39.6890448 C9.45546875,41.1271423 9.43632812,42.6447096 9.56342187,44.1416452 C9.744875,46.3140741 10.2333437,48.4429474 11.5203594,50.2294893 C12.7897656,51.0478752 14.3922187,51.6194464 16.4670625,51.3986121 C15.9326562,50.71777 15.4342344,49.8604133 14.9978281,48.7654113" id="Fill-4" fill="#007FC3"></path>
                <path d="M53.0723594,38.1241014 C53.8341563,36.3604834 54.1051875,34.8001248 54.0293906,33.3933567 C53.9022969,31.0291306 52.7982656,29.0974035 51.38875,27.3605302 C50.5641719,28.4914464 49.6607344,29.3732554 48.7840938,30.1626043 C49.5665625,31.2018246 50.2908438,32.4183236 50.8895625,33.9190799 C51.38875,35.1730214 51.6528906,36.2642027 51.7593125,37.2086706 C51.9553125,38.946308 51.6169063,40.1872593 51.2256719,41.0232203 C51.9445938,40.2384561 52.5724063,39.2840546 53.0723594,38.1241014" id="Fill-5" fill="#2C4381"></path>
                <g id="Group-9" transform="translate(26.796875, 0.000000)">
                    <path d="M17.7670938,14.2327329 C17.7900625,12.8114464 17.8405938,11.3259727 17.7387656,9.863423 C17.5802813,7.55039376 17.0420469,5.2954386 15.4242812,3.44700195 C14.2697187,2.81506433 12.8839375,2.24043665 10.9859531,2.3825653 C11.5571094,3.08174659 12.0884531,3.97654581 12.5508906,5.13649903 C13.2537344,6.89935283 13.6572187,8.40469396 13.8723594,9.73122807 C14.1456875,11.4107914 14.1165937,12.8015127 14.014,14.0562183 C13.8049844,16.6107135 13.2866562,18.5997505 14.3707813,21.3208265 C15.3530781,23.7836257 17.1369844,25.2675712 19.0066406,26.9883977 C19.8985938,26.1692476 20.806625,25.2584016 21.6595313,24.1572865 C20.2660937,22.6947368 18.9913281,21.265809 18.3589219,19.6817622 C17.7571406,18.170308 17.7349375,16.2683821 17.7670938,14.2327329" id="Fill-6" fill="#2C4381"></path>
                    <path d="M11.6512813,0.816093567 C10.4094375,0.280436647 9.05275,0.0221598441 7.63021875,0.0550175439 C6.27123438,0.0848187135 4.85176563,0.379773879 3.41775,0.949816764 C2.29457813,1.39377778 1.36817187,1.89810526 0.578046875,2.43452632 C1.90946875,3.36294737 2.8021875,4.37847953 3.62217188,5.35733333 C4.74075,4.59625731 6.12346875,3.84740741 7.9043125,3.13982066 C9.06729688,2.6782846 10.0848125,2.44904483 10.9867188,2.3825653 C12.8839375,2.24043665 14.2697187,2.81506433 15.4242813,3.44700195 C14.534625,2.42764912 13.3142188,1.53132164 11.6512813,0.816093567" id="Fill-8" fill="#3C5CA9"></path>
                </g>
                <path d="M20.02875,8.7225731 C18.0917187,9.49281871 16.2243594,9.4057076 14.2750781,9.29414425 C12.9283437,9.2154386 11.5433281,9.12527096 10.0702656,9.29949318 C9.09715625,9.4125848 8.08576562,9.64106043 7.02307812,10.0636257 C5.61432812,10.6229708 4.44828125,11.3397271 3.50503125,12.1756881 C3.03570312,12.9100195 2.38875,14.2480156 2.55642187,16.3807096 C3.35114062,15.7357817 4.40846875,15.1007875 5.8156875,14.5414425 C7.23285937,13.9805692 8.53978125,13.6718596 9.76478125,13.5159766 C11.2600469,13.3249435 12.6343437,13.3616218 13.9427969,13.4418558 C16.6462187,13.6092008 19.0678906,13.9698713 21.6687188,12.9367641 C24.3767344,11.8623938 25.4723438,10.1331618 27.1705,8.23964133 C26.3137656,7.27072125 25.3628594,6.28269786 24.1531719,5.3542768 C22.9006094,6.73888499 21.8317969,8.00810916 20.02875,8.7225731" id="Fill-10" fill="#3C5CA9"></path>
                <path d="M53.9834531,20.637692 C53.6014063,19.271423 52.7936719,18.0533957 51.6215,17.0653723 C51.4775625,18.2956257 51.1123594,19.4334191 50.7662969,20.2349942 C50.0940781,21.7915322 49.3016563,23.0683977 48.4564063,24.1572865 C47.6035,25.2584016 46.6962344,26.1692476 45.80275,26.9883977 C43.6383281,28.9766706 41.5596563,30.4247018 40.5582188,32.7446082 C39.2773281,35.7132632 39.6501875,38.3877271 39.6027188,40.3370292 C40.9073438,40.4172632 42.709625,40.4646394 44.1926406,40.2858324 C44.0219063,38.9684678 43.84275,36.94046 44.8725156,34.5578947 C45.6511563,32.7522495 47.1724531,31.6129279 48.7840938,30.1626043 C49.6607344,29.3732554 50.5641719,28.4914464 51.38875,27.3605302 C51.9507188,26.5895205 52.4751719,25.7023626 52.9284219,24.650152 C53.5516406,23.2082339 53.8831563,21.8710019 53.9834531,20.637692" id="Fill-11" fill="#DE771C"></path>
                <path d="M51.0112969,13.0620819 C49.9164531,12.0266823 48.6409219,11.241154 47.3990781,10.7062612 C46.3815625,10.2699415 45.4329531,10.0086082 44.5364063,9.86265887 C44.6374688,11.3259727 44.5869375,12.8122105 44.5632031,14.2327329 C45.9390313,14.4329357 47.4419531,14.8264639 49.1293906,15.5516257 C50.0833594,15.962729 50.9186563,16.4724055 51.6207344,17.0646082 C52.7936719,18.0533957 53.6014063,19.2706589 53.9834531,20.637692 C54.2521875,17.3756101 52.8985625,14.8478596 51.0112969,13.0620819" id="Fill-12" fill="#F6921E"></path>
                <g id="Group-18">
                    <mask id="mask-4" fill="white">
                        <use xlink:href="#path-3"></use>
                    </mask>
                    <g id="Clip-14"></g>
                    <path d="M34.8137344,9.11075244 C32.7036719,8.20296296 31.6432813,6.81835478 30.4190469,5.35733333 C29.5990625,4.37847953 28.7063438,3.36294737 27.3749219,2.43452632 C26.6858594,1.95465107 25.8827188,1.49693567 24.910375,1.0797193 C23.4641094,0.4577154 22.0477031,0.124553606 20.6948438,0.056545809 C19.56325,0.437083821 18.3596875,1.04533333 17.2725,2.32678363 C18.1874219,2.40701754 19.2110625,2.64848343 20.3380625,3.1337076 C21.8739063,3.793154 23.109625,4.55117349 24.1531719,5.3542768 C25.3628594,6.28269786 26.3137656,7.27072125 27.1705,8.23964133 C28.9880938,10.2921014 30.3815313,12.249809 32.9080938,13.3364055 C35.6505625,14.515462 38.03625,14.1425653 40.810875,14.0569825 C40.9142344,12.8015127 40.9417969,11.4100273 40.6692344,9.73122807 C38.6832031,9.82750877 36.8334531,9.97880702 34.8137344,9.11075244" id="Fill-13" fill="#F6921E" mask="url(#mask-4)"></path>
                    <path d="M14.2750781,9.29414425 C14.5353906,8.03638207 14.9710312,6.61891618 15.6761719,4.98520078 C16.1585156,3.86727485 16.6990469,3.0022768 17.2717344,2.32678363 C18.3596875,1.04533333 19.5624844,0.437083821 20.6948437,0.056545809 C17.7854687,-0.0916959064 15.1731562,0.989551657 13.211625,3.08633138 C12.3081875,4.05219493 11.5425625,5.2297232 10.9507344,6.60363353 C10.5334687,7.57102534 10.2524844,8.46353216 10.0702656,9.29949318 C11.5433281,9.12527096 12.9283437,9.2154386 14.2750781,9.29414425" id="Fill-15" fill="#FCB813" mask="url(#mask-4)"></path>
                    <path d="M13.9427969,13.4418558 C12.6343437,13.3616218 11.2600469,13.3257076 9.76478125,13.5167407 C9.84976563,15.5798986 10.0894063,17.3580351 9.25640625,19.2874698 C8.42953125,21.2054425 7.04221875,22.4632047 5.57910938,23.76223 C4.59298438,24.6386901 3.57317187,25.5342534 2.66973438,26.6613489 C2.04421875,27.4445848 1.47459375,28.3363275 1.010625,29.4129903 C0.42721875,30.7639766 0.111015625,32.0607096 0.025265625,33.2848499 C0.496125,34.8092943 1.31228125,35.9432671 2.35123438,36.8181988 C2.47526563,35.8500429 2.7715625,34.7252398 3.32970312,33.4330916 C3.96440625,31.9606082 4.71395313,30.7723821 5.518625,29.7621988 C6.44503125,28.5968967 7.44417188,27.6661832 8.4249375,26.8065341 C10.4086719,25.0688967 12.317375,23.6223938 13.4015,21.1099259 C14.6242031,18.2772865 14.044625,16.2057232 13.9427969,13.4418558" id="Fill-16" fill="#FCB813" mask="url(#mask-4)"></path>
                    <path d="M5.03934375,38.4205848 C4.05245313,37.9957271 3.13829688,37.4814659 2.352,36.8181988 C1.31151563,35.9440312 0.496125,34.8092943 0.0245,33.285614 C-0.18221875,36.2298168 0.93559375,38.7652086 2.86114063,40.6763041 C3.93760938,41.7460897 5.2675,42.6194932 6.7589375,43.2613645 C7.76879688,43.6953918 8.6975,43.9720078 9.56265625,44.1416452 C9.43632813,42.6447096 9.45470313,41.1279064 9.457,39.689809 C8.11639063,39.4949552 6.66170313,39.1182378 5.03934375,38.4205848" id="Fill-17" fill="#FFD300" mask="url(#mask-4)"></path>
                </g>
                <path d="M51.7593125,37.2086706 C50.9393281,37.9216062 49.8153906,38.6284288 48.2627031,39.2450838 C46.8003594,39.8250604 45.4551563,40.1345341 44.1926406,40.2858324 C42.709625,40.4646394 41.3406875,40.4210838 40.0360625,40.3393216 C37.3739844,40.1696842 34.9791094,39.8304094 32.4096719,40.8505263 C30.8033906,41.488577 29.7675,42.3604522 28.8334375,43.356117 C29.9244531,44.3273294 30.9098125,45.4123977 31.9005313,46.5517193 C32.7542031,45.8097466 33.5443281,45.2190721 34.2716719,44.93023 C37.0631406,43.8222378 46.3065313,46.3935439 51.2256719,41.0239844 C51.6161406,40.1872593 51.9553125,38.946308 51.7593125,37.2086706" id="Fill-19" fill="#009ADA"></path>
                <g id="Group-23" transform="translate(11.484375, 38.970760)">
                    <mask id="mask-6" fill="white">
                        <use xlink:href="#path-5"></use>
                    </mask>
                    <g id="Clip-21"></g>
                    <path d="M14.1188906,8.21442495 C13.3540313,8.75237427 12.6289844,9.21391033 12.121375,9.52567641 C12.1160156,9.51956335 12.1098906,9.51345029 12.1045313,9.5065731 C10.9982031,10.2516023 9.63615625,10.9844055 7.8920625,11.6774737 C6.83090625,12.0985107 5.86392187,12.3353918 4.9826875,12.4278519 C2.90860937,12.6486862 1.30539063,12.077115 0.03521875,11.258729 C0.950140625,12.5294815 2.26854688,13.62754 4.16729688,14.4428694 C5.93589062,15.2031813 7.58734375,15.374347 9.1293125,15.1481637 C10.6659219,14.9235088 12.0915156,14.3007407 13.419875,13.4823548 L13.4221719,13.4869396 C14.5376875,12.8893879 16.0092188,11.5941832 16.7893906,10.8728421 C15.9380156,9.92990253 15.0751562,9.02440546 14.1188906,8.21442495" id="Fill-20" fill="#009ADA" mask="url(#mask-6)"></path>
                    <path d="M25.9845469,13.500694 C24.1003438,12.2429318 22.9741094,10.5030019 21.7077656,9.06337622 C21.2675312,8.5628694 20.8410781,8.06847563 20.4161563,7.58095906 C19.4254375,6.44163743 18.4400781,5.3565692 17.3490625,4.38535673 C16.1845469,3.34842885 14.896,2.43834698 13.3134531,1.75750487 C9.1385,-0.0366783626 6.0851875,0.814565302 2.01282813,0.962042885 C1.89415625,2.88383626 1.94239062,3.12912281 2.22414063,5.3237115 C5.26520313,5.20068616 7.88670313,4.84765692 10.7294688,6.06950487 C12.0348594,6.6311423 13.1266406,7.37235088 14.1188906,8.21442495 C15.0751563,9.02440546 15.9380156,9.92990253 16.7893906,10.8728421 C16.9670156,11.0699883 17.1454063,11.2678986 17.3237969,11.4681014 C18.6161719,12.9168967 19.9353438,14.4130682 21.5975156,15.7388382 C22.7505469,16.6573255 24.065125,17.4932865 25.6522656,18.1756569 C27.6428906,19.0314854 35.1176875,20.8776296 38.6319063,14.5880546 C38.6319063,14.5880546 34.2862188,19.0375984 25.9845469,13.500694" id="Fill-22" fill="#FFD300" mask="url(#mask-6)"></path>
                </g>
                <path d="M76.1597812,12.8932086 C75.0473281,11.2037115 73.1615938,11.131883 72.5330156,11.1800234 C72.146375,11.2037115 71.1793906,11.3007563 70.3081094,11.9762495 C69.0027188,12.9902534 68.5196094,14.9449045 68.5196094,16.5129045 C68.5196094,17.0684288 68.5196094,19.7711657 70.4298438,21.2184327 C71.3968281,21.9420663 72.4847813,22.0146589 72.8959219,22.0146589 C73.1860937,22.0146589 73.9111406,21.9665185 74.6606875,21.6043197 C77.1512656,20.3733021 77.1512656,17.0195244 77.1512656,16.5365926 C77.1512656,14.7989552 76.4981875,13.3761404 76.1597812,12.8932086 Z M81.74425,26.6720468 C81.5995469,26.6475945 80.8262656,26.5276257 80.2214219,26.309848 C79.3516719,26.0202417 78.626625,25.5617622 77.0792969,24.4041014 C75.5319687,25.1521871 74.5159844,25.5862144 72.7749531,25.5862144 C72.0261719,25.5862144 70.4298438,25.5136218 68.6888125,24.6448031 C64.4579688,22.4975906 64.2642656,17.8402027 64.2642656,16.5129045 C64.2642656,15.4507602 64.3852344,12.6036023 66.5374063,10.214924 C68.7852812,7.70551267 71.5905312,7.56032749 72.7749531,7.56032749 C73.7664375,7.56032749 76.28075,7.70551267 78.4566562,9.58757115 C80.415125,11.2763041 81.3821094,13.9064483 81.3821094,16.4647641 C81.3821094,17.0684288 81.309375,18.9497232 80.4878594,20.6873606 C80.2704219,21.1695283 79.9794844,21.6532242 79.6900781,22.1117037 C79.9320156,22.3279532 80.2214219,22.5938713 80.4878594,22.7627446 C81.2856406,23.3175049 82.0589219,23.4863782 83.0021719,23.6315634 L81.74425,26.6720468 L81.74425,26.6720468 Z" id="Fill-24" fill="#2C4381"></path>
                <path d="M91.5886563,25.1032827 L91.5886563,23.9211696 C91.3222188,24.2107758 91.1775156,24.3551969 91.0320469,24.4759298 C90.5726719,24.8381287 89.4602188,25.4654815 87.9128906,25.4654815 C87.6234844,25.4654815 86.2208594,25.4654815 85.229375,24.6929435 C83.8275156,23.583423 83.9477188,21.5561793 83.9477188,20.0118674 L83.9477188,12.5065575 L87.6954531,12.5065575 L87.6954531,20.3503782 C87.6954531,21.1458402 87.7199531,21.7495049 88.3967656,22.1590799 C88.6142031,22.280577 88.928875,22.4494503 89.4847188,22.4494503 C90.6691406,22.4494503 91.2977188,21.773193 91.4676875,21.3154776 C91.5886563,21.0014191 91.6123906,20.6873606 91.6123906,20.3503782 L91.6123906,12.5065575 L95.3118906,12.5065575 L95.3118906,25.1032827 L91.5886563,25.1032827" id="Fill-25" fill="#2C4381"></path>
                <path d="M104.404453,15.0167329 C103.895312,14.7760312 103.484937,14.7760312 103.2675,14.7760312 C101.792141,14.7760312 101.116094,15.8610994 100.922391,16.2958908 C100.825922,16.5129045 100.729453,16.7780585 100.632219,17.2609903 L105.781812,17.2609903 C105.733578,16.8506511 105.660844,15.5714932 104.404453,15.0167329 Z M100.607719,19.5778402 C100.607719,19.697809 100.583984,19.9874152 100.655953,20.3259259 C100.946891,21.7976452 101.985844,22.7146043 103.484937,22.7146043 C103.703141,22.7146043 104.18625,22.690152 104.693859,22.4975906 C105.951016,22.0627992 106.507625,20.7836413 106.676062,20.470347 L109.481312,21.917614 C108.972937,22.6664639 108.708031,23.0042105 108.417859,23.3419571 C106.555859,25.3928889 104.138016,25.5617622 103.194766,25.5617622 C102.808125,25.5617622 101.913875,25.5380741 100.922391,25.2240156 C98.1179062,24.3551969 96.8125156,21.8946901 96.8125156,19.0460039 C96.8125156,18.27423 96.86075,15.9344561 98.4325781,14.1242261 C99.2058594,13.2546433 100.53575,12.1206706 103.292,12.1206706 C104.138016,12.1206706 106.652328,12.2177154 108.224156,14.4130682 C109.650516,16.3677193 109.602281,18.9741754 109.626781,19.5778402 L100.607719,19.5778402 L100.607719,19.5778402 Z" id="Fill-26" fill="#2C4381"></path>
                <path d="M118.501906,15.0167329 C117.994297,14.7760312 117.583156,14.7760312 117.365719,14.7760312 C115.890359,14.7760312 115.214313,15.8610994 115.020609,16.2958908 C114.923375,16.5129045 114.826906,16.7780585 114.729672,17.2609903 L119.880031,17.2609903 C119.831797,16.8506511 119.759063,15.5714932 118.501906,15.0167329 Z M114.705938,19.5778402 C114.705938,19.697809 114.681438,19.9874152 114.754172,20.3259259 C115.044344,21.7976452 116.083297,22.7146043 117.583156,22.7146043 C117.800594,22.7146043 118.283703,22.690152 118.792078,22.4975906 C120.049234,22.0627992 120.605844,20.7836413 120.774281,20.470347 L123.578766,21.917614 C123.071156,22.6664639 122.805484,23.0042105 122.515313,23.3419571 C120.654078,25.3928889 118.235469,25.5617622 117.292984,25.5617622 C116.906344,25.5617622 116.012094,25.5380741 115.020609,25.2240156 C112.215359,24.3551969 110.909969,21.8946901 110.909969,19.0460039 C110.909969,18.27423 110.958203,15.9344561 112.530031,14.1242261 C113.304078,13.2546433 114.633969,12.1206706 117.389453,12.1206706 C118.235469,12.1206706 120.749781,12.2177154 122.322375,14.4130682 C123.748734,16.3677193 123.7005,18.9741754 123.724234,19.5778402 L114.705938,19.5778402 L114.705938,19.5778402 Z" id="Fill-27" fill="#2C4381"></path>
                <path d="M132.9615,25.1032827 L132.9615,17.9846238 C132.9615,17.1402573 132.937766,16.5129045 132.816797,16.1751579 C132.647594,15.7403665 132.188219,15.1619181 131.124766,15.1619181 C130.955562,15.1619181 130.326984,15.1619181 129.866844,15.5478051 C129.239031,16.0299727 129.165531,16.8025107 129.165531,18.2979181 L129.165531,25.1032827 L125.442297,25.1032827 L125.442297,12.5310097 L129.214531,12.5310097 L129.214531,13.6176062 C129.3355,13.4961092 129.480203,13.3035478 129.794875,13.0620819 C130.253484,12.7243353 131.269469,12.1932632 132.767797,12.1932632 C133.058734,12.1932632 134.122187,12.2177154 135.017203,12.699883 C136.564531,13.5205614 136.6855,14.9449045 136.6855,16.4892164 L136.6855,25.1032827 L132.9615,25.1032827" id="Fill-28" fill="#2C4381"></path>
                <path d="M149.283859,23.1241793 C148.172172,24.7899883 145.850797,25.4410292 143.940562,25.4410292 C143.262984,25.4410292 141.159812,25.3202963 139.323078,24.1870877 C138.572766,23.7278441 138.065156,23.2212242 137.823219,23.0042105 L140.193594,20.8806862 C140.411031,21.0976998 140.628469,21.3154776 140.869641,21.4835867 C141.691922,22.1346277 142.828109,22.6183236 143.867828,22.6183236 C144.037031,22.6183236 144.376203,22.5938713 144.786578,22.4975906 C145.342422,22.3760936 146.091969,22.0627992 146.091969,21.3628538 C146.068234,20.4940351 144.955781,20.3977544 143.602156,20.1807407 C140.966109,19.7467135 139.757187,19.1430487 139.105641,17.8883431 C138.765703,17.2128499 138.718234,16.6099493 138.718234,16.3203431 C138.718234,15.9818324 138.790969,15.2337466 139.249578,14.4375205 C139.830687,13.3998285 141.257047,12.0969825 144.060766,12.0969825 C144.859312,12.0969825 146.720547,12.2177154 148.630781,13.3035478 C148.994453,13.5205614 149.332094,13.7383392 149.671266,13.9798051 L147.374391,16.1025653 C147.156187,15.9344561 146.937984,15.7648187 146.696812,15.6203977 C146.02,15.2092943 145.004781,14.8478596 144.206234,14.8478596 C143.674891,14.8478596 143.191781,14.9922807 143.021812,15.0648733 C142.562437,15.2826511 142.441469,15.5959454 142.441469,15.8129591 C142.441469,16.054425 142.586937,16.2722027 142.780641,16.4166238 C143.142781,16.6573255 144.060766,16.7780585 144.472672,16.8751033 L146.140203,17.236538 C148.147672,17.6705653 149.888703,18.6845692 149.888703,21.0251072 C149.888703,22.0627992 149.501297,22.810885 149.283859,23.1241793" id="Fill-29" fill="#2C4381"></path>
                <polygon id="Fill-30" fill="#2C4381" points="151.655 25.1032827 155.353734 25.1032827 155.353734 8.06694737 151.655 8.06694737"></polygon>
                <path d="M162.391359,19.8666823 C162.245891,19.9155867 162.101187,19.9637271 161.955719,20.0355556 C161.036969,20.4222066 160.795797,20.9532788 160.795797,21.4354464 C160.795797,21.508039 160.819531,21.773193 160.9405,22.0146589 C161.085969,22.2561248 161.448109,22.7146043 162.221391,22.7146043 C162.898969,22.7146043 163.479312,22.3279532 163.648516,22.2079844 C164.735703,21.4354464 164.784703,20.2533333 164.784703,19.0704561 L162.391359,19.8666823 Z M165.146844,25.1032827 L165.146844,23.9693099 C164.881172,24.1626355 164.64,24.3307446 164.374328,24.5003821 C163.914953,24.8144405 162.849969,25.4410292 161.278906,25.4410292 C159.006531,25.4410292 157.966813,24.2107758 157.554906,23.3656452 C157.29,22.8353372 157.143766,22.2079844 157.143766,21.6043197 C157.143766,19.3363743 159.175734,18.2505419 159.731578,18.009076 C160.674828,17.5987368 162.391359,17.2609903 164.784703,16.826963 L164.784703,16.1262534 C164.784703,15.6922261 164.711969,14.6063938 163.358344,14.6063938 C162.270391,14.6063938 161.762781,15.1130136 161.569844,15.524117 C161.520844,15.6203977 161.448109,15.8129591 161.399875,16.0788772 L157.676641,16.0788772 C157.724875,15.5714932 157.748609,14.4856608 158.691859,13.5450136 C159.731578,12.5310097 161.109703,12.3384483 161.544578,12.2658558 C162.270391,12.1688109 162.875234,12.1688109 163.165406,12.1688109 C164.929406,12.1688109 167.323516,12.5799142 168.170297,14.3893801 C168.315,14.7271267 168.435203,15.0648733 168.435203,15.7885068 L168.435203,23.1486316 C168.435203,24.2344639 168.484203,24.6448031 168.798109,25.1032827 L165.146844,25.1032827 L165.146844,25.1032827 Z" id="Fill-31" fill="#2C4381"></path>
                <path d="M177.938141,25.1032827 L177.938141,17.9846238 C177.938141,17.1402573 177.915172,16.5129045 177.793438,16.1751579 C177.624234,15.7403665 177.164859,15.1619181 176.101406,15.1619181 C175.932203,15.1619181 175.303625,15.1619181 174.843484,15.5478051 C174.215672,16.0299727 174.142938,16.8025107 174.142938,18.2979181 L174.142938,25.1032827 L170.419703,25.1032827 L170.419703,12.5310097 L174.191938,12.5310097 L174.191938,13.6176062 C174.312141,13.4961092 174.457609,13.3035478 174.772281,13.0620819 C175.230891,12.7243353 176.246875,12.1932632 177.745969,12.1932632 C178.035375,12.1932632 179.099594,12.2177154 179.993844,12.699883 C181.541938,13.5205614 181.662141,14.9449045 181.662141,16.4892164 L181.662141,25.1032827 L177.938141,25.1032827" id="Fill-32" fill="#2C4381"></path>
                <path d="M191.165844,15.9100039 C190.949172,15.5714932 190.319828,14.8234074 189.183641,14.9685926 C188.482328,15.0648733 187.925719,15.4507602 187.539844,16.0299727 C187.031469,16.7780585 186.886766,17.9127953 186.886766,18.8060663 C186.886766,19.0460039 186.863031,20.7118129 187.588078,21.773193 C188.143922,22.5938713 188.893469,22.690152 189.280109,22.690152 C189.714984,22.690152 190.222594,22.5212788 190.586266,22.2316725 C191.867922,21.2184327 191.794422,19.1193606 191.794422,18.8060663 C191.794422,18.4912437 191.867922,16.971384 191.165844,15.9100039 Z M191.939891,25.1032827 L191.915391,23.9211696 C191.674219,24.1626355 191.480516,24.3551969 191.190344,24.5722105 C190.102391,25.3692008 189.014438,25.4410292 188.506063,25.4410292 C187.660813,25.416577 185.677844,25.1758752 184.299719,23.2212242 C183.694875,22.3524055 183.114531,21.1458402 183.114531,18.8778947 C183.114531,18.1534971 183.114531,14.8723119 185.508641,13.1102222 C185.944281,12.7732398 186.9105,12.1688109 188.385859,12.1688109 C190.151391,12.1688109 191.214078,13.0620819 191.697953,13.4479688 L191.697953,8.06694737 L195.324719,8.06694737 L195.324719,25.1032827 L191.939891,25.1032827 L191.939891,25.1032827 Z" id="Fill-33" fill="#2C4381"></path>
                <path d="M76.9330625,44.93023 L76.9330625,43.36223 C76.4744531,43.7725692 76.1107813,44.0621754 75.8941094,44.2065965 C74.2985469,45.2687407 72.5820156,45.316117 71.9044375,45.316117 C71.2995938,45.316117 70.0432031,45.2687407 68.6160781,44.5932476 C65.5214219,43.0963119 64.2160313,39.6943938 64.2160313,36.4124444 C64.2160313,35.1569747 64.4579688,30.6210838 68.422375,28.4005146 C69.1244531,27.9909396 70.5500469,27.3146823 72.6294844,27.3146823 C75.821375,27.3146823 77.7798438,28.8108538 78.6740938,29.6070799 C79.2789375,30.138152 79.6655781,30.6210838 80.1494531,31.2484366 L76.9093281,33.2030877 C76.8373594,33.0823548 76.3527188,32.3098168 75.821375,31.8521014 C74.7334219,30.8625497 73.4272656,30.8144094 72.9441563,30.8144094 C72.6294844,30.8144094 71.4932969,30.8380975 70.5990469,31.4173099 C69.5830625,32.0683509 68.471375,33.5645224 68.471375,36.2924756 C68.471375,36.6539103 68.471375,39.0418246 69.6557969,40.4906199 C70.0914375,41.0209279 70.6717813,41.3112982 70.8892188,41.4312671 C71.203125,41.5764522 71.9771719,41.8905107 72.9441563,41.8905107 C73.2343281,41.8905107 73.7664375,41.8905107 74.41875,41.6734971 C74.7579219,41.552 75.796875,41.1416608 76.30525,40.1047329 C76.5709219,39.5736608 76.6436563,38.8492632 76.6673906,38.7048421 L72.8469219,38.7048421 L72.8469219,35.4717973 L80.2704219,35.4717973 L80.2704219,44.93023 L76.9330625,44.93023" id="Fill-34" fill="#2C4381"></path>
                <path d="M89.7503906,34.8436803 C89.2427812,34.6022144 88.8324062,34.6022144 88.6142031,34.6022144 C87.1388438,34.6022144 86.4620312,35.6888109 86.2690937,36.1228382 C86.1718594,36.3398519 86.0753906,36.60577 85.9789219,37.0879376 L91.1292812,37.0879376 C91.0802812,36.6783626 91.0075469,35.3992047 89.7503906,34.8436803 Z M85.9544219,39.4040234 C85.9544219,39.5255205 85.9299219,39.8143626 86.0026563,40.1536374 C86.2935937,41.6245926 87.3325469,42.5415517 88.8324062,42.5415517 C89.0490781,42.5415517 89.5329531,42.5170994 90.0405625,42.3237739 C91.2977188,41.8905107 91.8535625,40.6105887 92.0235312,40.2972943 L94.82725,41.7453255 C94.3204062,42.4934113 94.0539687,42.8311579 93.7637969,43.1689045 C91.9025625,45.2206004 89.4847187,45.3894737 88.5414687,45.3894737 C88.1548281,45.3894737 87.2605781,45.3650214 86.2690937,45.050963 C83.4638437,44.1829084 82.1584531,41.7208733 82.1584531,38.8737154 C82.1584531,38.1011774 82.2066875,35.7606394 83.7792812,33.9511735 C84.5525625,33.0823548 85.8824531,31.9476179 88.6379375,31.9476179 C89.4847187,31.9476179 91.9990313,32.0446628 93.5708594,34.2400156 C94.9972188,36.1954308 94.9489844,38.8018869 94.9734844,39.4040234 L85.9544219,39.4040234 L85.9544219,39.4040234 Z" id="Fill-35" fill="#2C4381"></path>
                <path d="M104.21075,44.93023 L104.21075,37.8123353 C104.21075,36.9679688 104.187016,36.3398519 104.065281,36.0021053 C103.896078,35.568078 103.436703,34.9888655 102.37325,34.9888655 C102.204812,34.9888655 101.575469,34.9888655 101.116094,35.3747524 C100.487516,35.8569201 100.415547,36.6294581 100.415547,38.1256296 L100.415547,44.93023 L96.6915469,44.93023 L96.6915469,32.3579571 L100.463016,32.3579571 L100.463016,33.4437895 C100.583984,33.3238207 100.729453,33.1304951 101.044125,32.8897934 C101.502734,32.5512827 102.518719,32.0209747 104.017813,32.0209747 C104.307984,32.0209747 105.370672,32.0446628 106.265687,32.5275945 C107.813781,33.3475088 107.933984,34.7718519 107.933984,36.3153996 L107.933984,44.93023 L104.21075,44.93023" id="Fill-36" fill="#2C4381"></path>
                <path d="M117.872563,35.3747524 C117.534922,35.1332865 117.027313,34.8925848 116.035828,34.8925848 C115.866625,34.8925848 115.165313,34.9407251 114.633969,35.2540195 C113.956391,35.6399064 113.158609,36.7257388 113.158609,38.5841092 C113.158609,39.8143626 113.568984,40.7320858 113.811688,41.1179727 C114.101859,41.552 114.826906,42.3489903 116.229531,42.3489903 C118.283703,42.3489903 119.203219,40.6350409 119.203219,38.7537466 C119.203219,36.8464717 118.598375,35.8821365 117.872563,35.3747524 Z M120.749781,43.8451618 C120.0255,44.4488265 118.550141,45.316117 116.180531,45.316117 C115.528219,45.316117 112.965672,45.1961481 111.224641,43.5066511 C110.474328,42.7830175 109.411641,41.2379415 109.411641,38.6085614 C109.411641,37.8841637 109.459875,35.833232 110.885469,34.1200468 C111.755984,33.0823548 113.497781,31.7795088 116.688141,31.9720702 C118.1635,32.0446628 119.468891,32.3831735 120.654078,33.3238207 C122.225141,34.6022144 122.974688,36.60577 122.974688,38.6322495 C122.974688,41.4801715 121.621063,43.12 120.749781,43.8451618 L120.749781,43.8451618 Z" id="Fill-37" fill="#2C4381"></path>
                <path d="M139.103344,44.93023 L139.103344,38.3189552 C139.103344,37.0161092 139.103344,36.2680234 138.764172,35.7361871 C138.474766,35.2540195 137.894422,35.0125536 137.362313,35.0125536 C137.047641,35.0125536 136.177891,35.0851462 135.718516,35.9058246 C135.428344,36.4124444 135.452078,36.9427524 135.452078,38.0774893 L135.452078,44.93023 L131.753344,44.93023 L131.753344,37.4501365 C131.753344,36.2435712 131.584141,35.7132632 131.027531,35.3503002 C130.713625,35.1332865 130.326984,35.0370058 129.939578,35.0370058 C129.770375,35.0370058 129.287266,35.0370058 128.875359,35.3503002 C128.102078,35.9295127 128.078344,36.9190643 128.078344,37.7389786 L128.078344,44.93023 L124.403344,44.93023 L124.403344,32.334269 L128.078344,32.334269 L128.102078,33.637115 C128.319516,33.3727251 128.464984,33.2030877 128.730656,32.9860741 C129.214531,32.6001871 130.133281,31.9965224 131.656109,31.9965224 C131.947047,31.9965224 133.252438,32.0209747 134.170422,32.6001871 C134.557828,32.8408889 134.871734,33.1549474 135.187172,33.4682417 C135.645781,33.0823548 135.814984,32.9616218 136.081422,32.7935127 C136.516297,32.5275945 137.556016,31.9965224 138.933375,31.9965224 C139.369016,31.9965224 141.133781,32.0209747 142.174266,33.3727251 C142.779109,34.1200468 142.802078,34.9162729 142.802078,36.7257388 L142.802078,44.93023 L139.103344,44.93023" id="Fill-38" fill="#2C4381"></path>
                <path d="M144.691641,44.93023 L148.391141,44.93023 L148.391141,32.334269 L144.691641,32.334269 L144.691641,44.93023 Z M144.691641,30.766269 L148.391141,30.766269 L148.391141,27.8946589 L144.691641,27.8946589 L144.691641,30.766269 Z" id="Fill-39" fill="#2C4381"></path>
                <path d="M161.399109,43.1689045 C159.730812,45.1235556 157.579406,45.3413333 156.659891,45.3413333 C156.104047,45.3413333 154.992359,45.2687407 153.710703,44.6413879 C151.341094,43.4821988 150.398609,41.2379415 150.398609,38.7285302 C150.398609,38.1493177 150.422344,36.9427524 151.027187,35.5428616 C152.452781,32.2379883 155.572703,31.9720702 156.732625,31.9720702 C157.724109,31.9720702 159.947484,32.1653957 161.641047,34.2889201 C161.78575,34.4822456 161.882219,34.6266667 162.124156,35.0125536 L159.368672,36.5813177 C159.344172,36.5087251 159.150469,36.1228382 158.956766,35.8569201 C158.739328,35.5917661 158.038016,34.8199922 156.901828,34.8199922 C156.636156,34.8199922 156.104047,34.8436803 155.547438,35.2540195 C154.267313,36.2191189 154.218312,38.3670955 154.218312,38.6085614 C154.218312,39.6943938 154.581219,41.0942846 155.427234,41.7934659 C155.669172,41.9867914 156.201281,42.3971306 157.022797,42.3971306 C158.231719,42.3726784 158.884797,41.5764522 159.102234,41.2631579 C159.222437,41.0698324 159.319672,40.9246472 159.465141,40.5150721 L162.269625,41.9623392 C162.003953,42.3726784 161.713016,42.8067057 161.399109,43.1689045" id="Fill-40" fill="#2C4381"></path>
                <path d="M174.538,43.1215283 C173.426312,44.7865731 171.104938,45.4383782 169.195469,45.4383782 C168.517891,45.4383782 166.414719,45.3176452 164.577219,44.1829084 C163.826906,43.725193 163.320063,43.2185731 163.078125,43.0007953 L165.446969,40.877271 C165.664406,41.0942846 165.883375,41.3112982 166.123781,41.4809357 C166.946062,42.1319766 168.083016,42.6149084 169.121969,42.6149084 C169.291938,42.6149084 169.629578,42.5904561 170.040719,42.4934113 C170.597328,42.3734425 171.346875,42.0601481 171.346875,41.3602027 C171.322375,40.491384 170.209922,40.3943392 168.856297,40.1773255 C166.221016,39.7432982 165.012094,39.1403977 164.359016,37.8849279 C164.020609,37.2094347 163.973141,36.60577 163.973141,36.3161637 C163.973141,35.9784172 164.045109,35.2303314 164.504484,34.4341053 C165.084828,33.3964133 166.511188,32.0935673 169.315672,32.0935673 C170.113453,32.0935673 171.975453,32.2143002 173.885688,33.3001326 C174.247828,33.5171462 174.587,33.7341598 174.924641,33.9756257 L172.627766,36.0991501 C172.410328,35.9302768 172.192891,35.7614035 171.950953,35.6162183 C171.274906,35.2066433 170.258156,34.8452086 169.460375,34.8452086 C168.929031,34.8452086 168.445156,34.9896296 168.275953,35.0622222 C167.816578,35.2792359 167.695609,35.5925302 167.695609,35.8095439 C167.695609,36.0517739 167.841078,36.2687875 168.034781,36.4132086 C168.397687,36.6546745 169.315672,36.7754074 169.726812,36.8716881 L171.395109,37.2338869 C173.401813,37.6679142 175.142844,38.681154 175.142844,41.0224561 C175.142844,42.0601481 174.756203,42.8074698 174.538,43.1215283" id="Fill-41" fill="#2C4381"></path>
            </g>
        </g>
    </g>
</svg>